<?xml version="1.0" encoding="UTF-8"?>
<svg xmlns="http://www.w3.org/2000/svg" xmlns:xlink="http://www.w3.org/1999/xlink" width="34px" height="34px" viewBox="0 0 24 24" version="1.1">
<g id="surface1">
<path style=" stroke:none;fill-rule:nonzero;fill-opacity:1;" d="M 11.863281 0 C 5.3125 0 0 5.3125 0 11.863281 C 0 18.414062 5.3125 23.726562 11.863281 23.726562 C 18.414062 23.726562 23.726562 18.414062 23.726562 11.863281 C 23.726562 5.3125 18.417969 0 11.863281 0 Z M 15.003906 11.8125 L 12.949219 11.8125 L 12.949219 19.140625 L 9.90625 19.140625 L 9.90625 11.8125 L 8.457031 11.8125 L 8.457031 9.226562 L 9.90625 9.226562 L 9.90625 7.550781 C 9.90625 6.351562 10.476562 4.480469 12.980469 4.480469 L 15.234375 4.488281 L 15.234375 7 L 13.597656 7 C 13.328125 7 12.949219 7.132812 12.949219 7.703125 L 12.949219 9.226562 L 15.269531 9.226562 Z M 15.003906 11.8125 "/>
</g>
</svg>
