<?xml version="1.0" encoding="UTF-8"?>
<svg xmlns="http://www.w3.org/2000/svg" xmlns:xlink="http://www.w3.org/1999/xlink" width="34px" height="34px" viewBox="0 0 24 24" version="1.1">
<g id="surface1">
<path style=" stroke:none;fill-rule:nonzero;fill-opacity:1;" d="M 11.863281 0 C 5.3125 0 0 5.3125 0 11.863281 C 0 18.414062 5.3125 23.726562 11.863281 23.726562 C 18.417969 23.726562 23.726562 18.414062 23.726562 11.863281 C 23.726562 5.3125 18.417969 0 11.863281 0 Z M 7.316406 15.539062 C 5.253906 15.539062 3.582031 13.867188 3.582031 11.808594 C 3.582031 9.742188 5.253906 8.074219 7.316406 8.074219 C 9.378906 8.074219 11.046875 9.742188 11.046875 11.808594 C 11.050781 13.867188 9.378906 15.539062 7.316406 15.539062 Z M 16.683594 15.539062 C 14.621094 15.539062 12.949219 13.867188 12.949219 11.808594 C 12.949219 9.742188 14.621094 8.074219 16.683594 8.074219 C 18.746094 8.074219 20.417969 9.742188 20.417969 11.808594 C 20.417969 13.867188 18.746094 15.539062 16.683594 15.539062 Z M 16.683594 15.539062 "/>
</g>
</svg>
