<?xml version="1.0" encoding="UTF-8"?>
<svg xmlns="http://www.w3.org/2000/svg" xmlns:xlink="http://www.w3.org/1999/xlink" width="34px" height="34px" viewBox="0 0 24 24" version="1.1">
<g id="surface1">
<path style=" stroke:none;fill-rule:nonzero;fill-opacity:1;" d="M 16.761719 9.265625 L 16.761719 7.082031 L 16.476562 7.082031 L 14.578125 7.089844 L 14.582031 9.273438 Z M 11.804688 14.3125 C 13.058594 14.3125 14.074219 13.296875 14.074219 12.042969 C 14.074219 11.550781 13.914062 11.09375 13.644531 10.71875 C 13.230469 10.148438 12.5625 9.773438 11.804688 9.773438 C 11.046875 9.773438 10.378906 10.148438 9.964844 10.71875 C 9.695312 11.09375 9.535156 11.550781 9.535156 12.042969 C 9.535156 13.296875 10.554688 14.3125 11.804688 14.3125 Z M 11.863281 0 C 5.3125 0 0 5.3125 0 11.863281 C 0 18.414062 5.3125 23.726562 11.863281 23.726562 C 18.417969 23.726562 23.730469 18.414062 23.730469 11.863281 C 23.730469 5.3125 18.417969 0 11.863281 0 Z M 18.253906 16 C 18.253906 17.375 17.136719 18.492188 15.761719 18.492188 L 7.847656 18.492188 C 6.476562 18.492188 5.355469 17.375 5.355469 16 L 5.355469 8.089844 C 5.355469 6.714844 6.476562 5.597656 7.847656 5.597656 L 15.761719 5.597656 C 17.136719 5.597656 18.253906 6.714844 18.253906 8.089844 Z M 15.332031 12.046875 C 15.332031 13.988281 13.75 15.570312 11.804688 15.570312 C 9.859375 15.570312 8.28125 13.988281 8.28125 12.046875 C 8.28125 11.574219 8.371094 11.128906 8.539062 10.722656 L 6.613281 10.722656 L 6.613281 16 C 6.613281 16.683594 7.167969 17.238281 7.847656 17.238281 L 15.761719 17.238281 C 16.445312 17.238281 16.996094 16.683594 16.996094 16 L 16.996094 10.722656 L 15.070312 10.722656 C 15.238281 11.128906 15.332031 11.574219 15.332031 12.046875 Z M 15.332031 12.046875 "/>
</g>
</svg>
