<?xml version="1.0" encoding="UTF-8"?>
<svg xmlns="http://www.w3.org/2000/svg" xmlns:xlink="http://www.w3.org/1999/xlink" width="40px" height="34px" viewBox="0 0 28 24" version="1.1">
<g id="surface1">
<path style=" stroke:none;fill-rule:nonzero;fill-opacity:1;" d="M 26.496094 22.5625 C 26.617188 22.566406 26.734375 22.515625 26.816406 22.425781 C 26.898438 22.335938 26.941406 22.21875 26.9375 22.09375 C 26.9375 21.761719 26.738281 21.605469 26.332031 21.605469 L 25.679688 21.605469 L 25.679688 23.34375 L 25.925781 23.34375 L 25.925781 22.585938 L 26.226562 22.585938 L 26.234375 22.59375 L 26.703125 23.34375 L 26.96875 23.34375 L 26.460938 22.566406 Z M 26.210938 22.390625 L 25.925781 22.390625 L 25.925781 21.800781 L 26.289062 21.800781 C 26.472656 21.800781 26.6875 21.832031 26.6875 22.082031 C 26.6875 22.367188 26.472656 22.390625 26.210938 22.390625 "/>
<path style=" stroke:none;fill-rule:nonzero;fill-opacity:1;" d="M 20.074219 20.382812 L 16.582031 20.382812 L 16.582031 14.832031 C 16.582031 13.507812 16.558594 11.804688 14.769531 11.804688 C 12.949219 11.804688 12.671875 13.246094 12.671875 14.734375 L 12.671875 20.382812 L 9.179688 20.382812 L 9.179688 8.96875 L 12.53125 8.96875 L 12.53125 10.527344 L 12.578125 10.527344 C 13.261719 9.339844 14.53125 8.632812 15.886719 8.683594 C 19.421875 8.683594 20.074219 11.046875 20.074219 14.121094 Z M 5.242188 7.40625 C 4.121094 7.40625 3.214844 6.488281 3.214844 5.351562 C 3.214844 4.214844 4.121094 3.292969 5.242188 3.292969 C 6.359375 3.292969 7.265625 4.214844 7.265625 5.351562 C 7.265625 6.484375 6.359375 7.40625 5.242188 7.40625 M 6.988281 20.382812 L 3.492188 20.382812 L 3.492188 8.96875 L 6.988281 8.96875 Z M 21.816406 0 L 1.738281 0 C 0.789062 -0.0078125 0.0117188 0.761719 0 1.726562 L 0 22.195312 C 0.0117188 23.160156 0.789062 23.933594 1.738281 23.921875 L 21.816406 23.921875 C 22.765625 23.933594 23.546875 23.160156 23.558594 22.195312 L 23.558594 1.722656 C 23.546875 0.757812 22.765625 -0.0117188 21.816406 0 "/>
<path style=" stroke:none;fill-rule:nonzero;fill-opacity:1;" d="M 26.242188 20.828125 C 25.355469 20.835938 24.644531 21.570312 24.648438 22.46875 C 24.652344 23.367188 25.371094 24.089844 26.257812 24.089844 C 27.140625 24.089844 27.859375 23.367188 27.863281 22.46875 C 27.867188 21.570312 27.15625 20.835938 26.273438 20.828125 L 26.242188 20.828125 M 26.242188 23.90625 C 25.464844 23.917969 24.820312 23.289062 24.808594 22.496094 C 24.796875 21.707031 25.417969 21.058594 26.195312 21.042969 C 26.972656 21.03125 27.613281 21.660156 27.625 22.449219 C 27.625 22.457031 27.625 22.464844 27.625 22.472656 C 27.640625 23.246094 27.039062 23.886719 26.277344 23.902344 L 26.242188 23.902344 "/>
</g>
</svg>
