<?xml version="1.0" encoding="UTF-8"?>
<svg xmlns="http://www.w3.org/2000/svg" xmlns:xlink="http://www.w3.org/1999/xlink" width="34px" height="34px" viewBox="0 0 24 24" version="1.1">
<g id="surface1">
<path style=" stroke:none;fill-rule:nonzero;fill-opacity:1;" d="M 12 0 C 5.371094 0 0 5.371094 0 12 C 0 17.085938 3.160156 21.433594 7.625 23.179688 C 7.515625 22.230469 7.425781 20.769531 7.664062 19.734375 C 7.882812 18.796875 9.066406 13.769531 9.066406 13.769531 C 9.066406 13.769531 8.710938 13.046875 8.710938 11.988281 C 8.710938 10.320312 9.679688 9.078125 10.882812 9.078125 C 11.910156 9.078125 12.40625 9.847656 12.40625 10.765625 C 12.40625 11.792969 11.753906 13.332031 11.40625 14.765625 C 11.121094 15.960938 12.011719 16.9375 13.183594 16.9375 C 15.320312 16.9375 16.957031 14.6875 16.957031 11.445312 C 16.957031 8.574219 14.894531 6.566406 11.941406 6.566406 C 8.523438 6.566406 6.519531 9.125 6.519531 11.773438 C 6.519531 12.800781 6.914062 13.90625 7.40625 14.507812 C 7.507812 14.628906 7.515625 14.734375 7.488281 14.855469 C 7.398438 15.230469 7.191406 16.050781 7.152344 16.21875 C 7.101562 16.433594 6.972656 16.484375 6.746094 16.375 C 5.246094 15.675781 4.304688 13.492188 4.304688 11.722656 C 4.304688 7.941406 7.050781 4.464844 12.238281 4.464844 C 16.394531 4.464844 19.632812 7.425781 19.632812 11.398438 C 19.632812 15.535156 17.027344 18.863281 13.414062 18.863281 C 12.199219 18.863281 11.050781 18.230469 10.667969 17.480469 C 10.667969 17.480469 10.0625 19.773438 9.917969 20.335938 C 9.648438 21.382812 8.917969 22.6875 8.425781 23.488281 C 9.550781 23.832031 10.734375 24.019531 11.980469 24.019531 C 18.605469 24.019531 23.980469 18.648438 23.980469 12.019531 C 24 5.371094 18.628906 0 12 0 Z M 12 0 "/>
</g>
</svg>
