<?xml version="1.0" encoding="UTF-8"?>
<svg xmlns="http://www.w3.org/2000/svg" xmlns:xlink="http://www.w3.org/1999/xlink" width="34px" height="34px" viewBox="0 0 24 24" version="1.1">
<g id="surface1">
<path style=" stroke:none;fill-rule:nonzero;fill-opacity:1;" d="M 12 0.308594 C 5.542969 0.308594 0.308594 5.542969 0.308594 12 C 0.308594 18.457031 5.542969 23.691406 12 23.691406 C 18.457031 23.691406 23.691406 18.457031 23.691406 12 C 23.691406 5.542969 18.457031 0.308594 12 0.308594 Z M 18.578125 8.132812 C 18.585938 8.304688 18.585938 8.472656 18.585938 8.640625 C 18.585938 13.777344 15.171875 19.695312 8.933594 19.695312 C 7.015625 19.695312 5.230469 19.050781 3.730469 17.949219 C 3.996094 17.984375 4.265625 18.003906 4.539062 18.003906 C 6.128906 18.003906 7.59375 17.382812 8.753906 16.339844 C 7.265625 16.3125 6.015625 15.183594 5.582031 13.640625 C 5.789062 13.683594 6.003906 13.714844 6.222656 13.714844 C 6.53125 13.714844 6.832031 13.664062 7.117188 13.574219 C 5.5625 13.21875 4.394531 11.648438 4.394531 9.765625 L 4.394531 9.71875 C 4.851562 10.007812 5.375 10.183594 5.929688 10.203125 C 5.019531 9.503906 4.421875 8.316406 4.421875 6.96875 C 4.421875 6.253906 4.589844 5.589844 4.882812 5.015625 C 6.554688 7.367188 9.054688 8.910156 11.875 9.074219 C 11.816406 8.792969 11.785156 8.492188 11.785156 8.1875 C 11.785156 6.042969 13.304688 4.304688 15.179688 4.304688 C 16.160156 4.304688 17.039062 4.773438 17.660156 5.53125 C 18.433594 5.355469 19.15625 5.03125 19.816406 4.585938 C 19.558594 5.496094 19.023438 6.257812 18.324219 6.738281 C 19.007812 6.644531 19.664062 6.4375 20.273438 6.125 C 19.816406 6.90625 19.242188 7.589844 18.578125 8.132812 Z M 18.578125 8.132812 "/>
</g>
</svg>
