<?xml version="1.0" encoding="UTF-8"?>
<svg xmlns="http://www.w3.org/2000/svg" xmlns:xlink="http://www.w3.org/1999/xlink" width="34px" height="34px" viewBox="0 0 24 24" version="1.1">
<g id="surface1">
<path style=" stroke:none;fill-rule:nonzero;fill-opacity:1;" d="M 6.800781 12.863281 L 7.65625 12.863281 L 7.65625 17.132812 L 8.488281 17.132812 L 8.488281 12.863281 L 9.347656 12.863281 L 9.347656 12.136719 L 6.800781 12.136719 Z M 11.898438 9.316406 C 12.011719 9.316406 12.097656 9.285156 12.164062 9.226562 C 12.230469 9.164062 12.265625 9.078125 12.265625 8.96875 L 12.265625 6.757812 C 12.265625 6.667969 12.230469 6.597656 12.164062 6.542969 C 12.097656 6.488281 12.007812 6.460938 11.898438 6.460938 C 11.796875 6.460938 11.714844 6.488281 11.652344 6.542969 C 11.589844 6.597656 11.558594 6.667969 11.558594 6.757812 L 11.558594 8.96875 C 11.558594 9.078125 11.585938 9.164062 11.644531 9.226562 C 11.703125 9.285156 11.789062 9.316406 11.898438 9.316406 Z M 13.726562 13.402344 C 13.613281 13.402344 13.496094 13.429688 13.386719 13.488281 C 13.277344 13.546875 13.171875 13.632812 13.070312 13.746094 L 13.070312 12.136719 L 12.328125 12.136719 L 12.328125 17.132812 L 13.070312 17.132812 L 13.070312 16.847656 C 13.167969 16.960938 13.273438 17.046875 13.386719 17.097656 C 13.496094 17.152344 13.628906 17.179688 13.773438 17.179688 C 13.988281 17.179688 14.160156 17.109375 14.273438 16.972656 C 14.386719 16.828125 14.445312 16.632812 14.445312 16.371094 L 14.445312 14.324219 C 14.445312 14.023438 14.386719 13.792969 14.261719 13.636719 C 14.140625 13.480469 13.960938 13.402344 13.726562 13.402344 Z M 13.6875 16.269531 C 13.6875 16.386719 13.664062 16.472656 13.625 16.523438 C 13.582031 16.574219 13.515625 16.601562 13.425781 16.601562 L 13.246094 16.5625 L 13.070312 16.429688 L 13.070312 14.136719 L 13.222656 14.023438 L 13.378906 13.988281 C 13.480469 13.988281 13.554688 14.019531 13.609375 14.082031 C 13.660156 14.148438 13.683594 14.242188 13.683594 14.367188 L 13.683594 16.269531 Z M 11.035156 16.246094 C 10.96875 16.324219 10.890625 16.390625 10.808594 16.441406 C 10.726562 16.492188 10.65625 16.519531 10.601562 16.519531 C 10.535156 16.519531 10.484375 16.5 10.449219 16.460938 C 10.421875 16.421875 10.40625 16.359375 10.40625 16.273438 L 10.40625 13.445312 L 9.671875 13.445312 L 9.671875 16.527344 C 9.671875 16.746094 9.714844 16.910156 9.800781 17.019531 C 9.886719 17.128906 10.015625 17.183594 10.183594 17.183594 C 10.324219 17.183594 10.464844 17.148438 10.613281 17.066406 C 10.761719 16.988281 10.902344 16.875 11.039062 16.726562 L 11.039062 17.128906 L 11.773438 17.128906 L 11.773438 13.445312 L 11.039062 13.445312 L 11.039062 16.246094 Z M 11.863281 0 C 5.3125 0 0 5.3125 0 11.863281 C 0 18.417969 5.3125 23.726562 11.863281 23.726562 C 18.417969 23.726562 23.730469 18.417969 23.730469 11.863281 C 23.730469 5.3125 18.417969 0 11.863281 0 Z M 13.78125 5.859375 L 14.609375 5.859375 L 14.609375 8.972656 C 14.609375 9.066406 14.628906 9.136719 14.664062 9.179688 C 14.699219 9.222656 14.753906 9.246094 14.832031 9.246094 C 14.894531 9.246094 14.96875 9.214844 15.0625 9.160156 C 15.15625 9.101562 15.242188 9.027344 15.320312 8.9375 L 15.320312 5.859375 L 16.148438 5.859375 L 16.148438 9.917969 L 15.320312 9.917969 L 15.320312 9.472656 C 15.167969 9.636719 15.007812 9.761719 14.839844 9.847656 C 14.675781 9.933594 14.515625 9.976562 14.359375 9.976562 C 14.167969 9.976562 14.023438 9.917969 13.925781 9.796875 C 13.828125 9.675781 13.78125 9.496094 13.78125 9.253906 Z M 10.703125 6.789062 C 10.703125 6.476562 10.8125 6.222656 11.035156 6.035156 C 11.261719 5.851562 11.558594 5.757812 11.9375 5.757812 C 12.28125 5.757812 12.5625 5.855469 12.78125 6.050781 C 13 6.246094 13.109375 6.503906 13.109375 6.8125 L 13.109375 8.910156 C 13.109375 9.257812 13 9.527344 12.789062 9.726562 C 12.570312 9.921875 12.277344 10.019531 11.898438 10.019531 C 11.535156 10.019531 11.246094 9.917969 11.027344 9.714844 C 10.8125 9.511719 10.703125 9.238281 10.703125 8.890625 Z M 8.445312 4.417969 L 9.050781 6.613281 L 9.109375 6.613281 L 9.6875 4.417969 L 10.632812 4.417969 L 9.550781 7.636719 L 9.550781 9.917969 L 8.613281 9.917969 L 8.613281 7.738281 L 7.503906 4.417969 Z M 19.304688 15.996094 C 19.304688 17.464844 18.113281 18.65625 16.644531 18.65625 L 7.40625 18.65625 C 5.9375 18.65625 4.746094 17.464844 4.746094 15.996094 L 4.746094 13.859375 C 4.746094 12.390625 5.9375 11.199219 7.40625 11.199219 L 16.644531 11.199219 C 18.113281 11.199219 19.304688 12.390625 19.304688 13.859375 Z M 15.953125 13.355469 C 15.621094 13.355469 15.355469 13.453125 15.144531 13.65625 C 14.9375 13.855469 14.832031 14.117188 14.832031 14.4375 L 14.832031 16.09375 C 14.832031 16.445312 14.925781 16.726562 15.117188 16.925781 C 15.304688 17.128906 15.566406 17.230469 15.894531 17.230469 C 16.261719 17.230469 16.539062 17.136719 16.722656 16.945312 C 16.910156 16.753906 16.996094 16.46875 16.996094 16.09375 L 16.996094 15.902344 L 16.238281 15.902344 L 16.238281 16.070312 C 16.238281 16.289062 16.214844 16.429688 16.167969 16.492188 C 16.117188 16.554688 16.03125 16.585938 15.910156 16.585938 C 15.796875 16.585938 15.710938 16.550781 15.660156 16.476562 C 15.613281 16.402344 15.589844 16.265625 15.589844 16.070312 L 15.589844 15.378906 L 16.996094 15.378906 L 16.996094 14.4375 C 16.996094 14.089844 16.90625 13.824219 16.726562 13.636719 C 16.546875 13.449219 16.289062 13.355469 15.953125 13.355469 Z M 16.242188 14.804688 L 15.589844 14.804688 L 15.589844 14.433594 C 15.589844 14.277344 15.617188 14.164062 15.667969 14.101562 C 15.71875 14.03125 15.800781 14 15.917969 14 C 16.027344 14 16.113281 14.03125 16.164062 14.101562 C 16.214844 14.164062 16.238281 14.277344 16.238281 14.433594 L 16.238281 14.804688 Z M 16.242188 14.804688 "/>
</g>
</svg>
